<?xml version="1.0" standalone="no"?>
<!DOCTYPE svg PUBLIC "-//W3C//DTD SVG 20010904//EN"
 "http://www.w3.org/TR/2001/REC-SVG-20010904/DTD/svg10.dtd">
<svg version="1.0" xmlns="http://www.w3.org/2000/svg"
 width="300.000000pt" height="300.000000pt" viewBox="0 0 300.000000 300.000000"
 preserveAspectRatio="xMidYMid meet">
<metadata>
Created by potrace 1.11, written by Peter Selinger 2001-2013
</metadata>
<g transform="translate(0.000000,300.000000) scale(0.100000,-0.100000)"
fill="#000000" stroke="none">
<path d="M0 1500 l0 -1500 1500 0 1500 0 0 555 c0 545 0 555 -20 555 -11 0
-619 -47 -1352 -105 -733 -58 -1336 -105 -1340 -105 -4 0 -8 11 -8 25 0 18 6
26 23 29 12 3 609 50 1327 106 718 55 1320 103 1338 106 l32 5 0 914 0 915
-1500 0 -1500 0 0 -1500z m1640 775 c0 -3 -49 -108 -110 -234 -60 -126 -110
-234 -110 -240 0 -6 11 -11 24 -11 32 0 119 96 192 212 54 85 55 87 38 112
-16 26 -14 55 5 86 8 12 13 12 30 -4 11 -10 17 -24 14 -32 -2 -7 14 -35 36
-62 23 -26 41 -59 41 -71 0 -13 -15 -58 -34 -100 -42 -94 -46 -114 -24 -119
37 -7 115 85 181 214 57 113 64 124 90 124 15 0 27 -3 27 -7 0 -4 -27 -64 -59
-133 -81 -169 -83 -177 -65 -184 9 -3 24 -1 34 4 35 19 108 116 154 207 53
102 87 133 149 133 29 0 41 -6 59 -30 12 -16 28 -30 35 -30 21 0 16 -14 -37
-120 -27 -55 -50 -109 -50 -120 0 -36 35 -22 93 38 41 44 68 87 108 170 51
110 52 112 86 112 30 0 33 -2 23 -19 -14 -27 -12 -40 3 -21 35 45 99 64 125
38 23 -23 12 -67 -43 -179 -42 -85 -52 -115 -44 -125 17 -20 58 5 109 66 27
32 46 48 52 42 15 -15 -4 -43 -67 -100 -63 -58 -104 -72 -140 -48 -36 23 -32
49 26 170 47 98 55 136 30 136 -5 0 -31 -21 -56 -47 -33 -32 -65 -83 -104
-162 -54 -111 -59 -116 -90 -119 -26 -3 -32 0 -28 10 3 10 -10 7 -41 -9 -49
-25 -77 -23 -103 8 -16 17 -18 17 -30 2 -16 -18 -70 -43 -94 -43 -9 0 -26 11
-38 24 l-23 25 -43 -30 c-54 -36 -94 -38 -118 -6 l-17 24 -40 -29 c-26 -18
-51 -28 -76 -28 -73 0 -78 44 -20 160 43 86 47 102 27 119 -11 8 -27 -10 -77
-87 -76 -116 -152 -194 -204 -212 -34 -11 -41 -10 -67 9 l-28 21 -37 -25 c-20
-14 -49 -25 -65 -25 -27 0 -59 22 -59 41 0 6 -17 -3 -37 -20 -47 -39 -89 -41
-105 -7 -8 19 -7 39 5 88 9 34 14 64 13 66 -2 2 -26 0 -54 -4 -47 -6 -52 -10
-91 -66 -99 -140 -236 -177 -332 -91 -84 76 -74 217 23 310 41 39 76 53 136
53 49 0 92 -21 117 -57 13 -18 12 -21 -10 -31 -21 -10 -28 -8 -49 13 -62 61
-168 8 -202 -101 -23 -70 -8 -125 39 -154 89 -55 171 -1 308 204 115 170 156
223 194 246 41 26 78 27 71 3 -12 -41 -116 -440 -116 -446 0 -4 6 -7 14 -7 27
0 107 104 152 197 33 70 53 98 81 118 43 29 88 32 114 9 17 -15 21 -10 65 77
25 52 52 97 58 101 13 9 56 11 56 3z m431 -5 c24 -13 25 -56 1 -69 -38 -20
-72 35 -40 67 15 15 15 15 39 2z m-371 -574 c0 -2 -49 -106 -110 -231 -60
-125 -110 -234 -110 -241 0 -8 10 -14 24 -14 35 0 122 100 163 187 43 92 84
140 133 153 69 19 116 -17 104 -80 -7 -30 -29 -50 -57 -50 -13 0 -13 5 -4 30
14 38 0 55 -38 46 -21 -5 -35 -26 -75 -108 -28 -56 -50 -109 -50 -118 0 -9 9
-25 20 -35 18 -16 25 -17 61 -6 68 20 135 92 187 200 52 105 90 142 148 144
29 1 42 -5 65 -31 16 -18 33 -32 39 -32 16 0 13 -8 -45 -130 -45 -94 -52 -116
-40 -123 38 -21 119 71 193 221 55 109 58 112 90 112 30 0 32 -2 21 -21 -10
-20 -8 -20 22 4 50 38 83 43 108 18 27 -27 22 -47 -40 -173 -54 -108 -60 -138
-28 -138 19 0 119 93 119 112 0 4 7 8 15 8 29 0 15 -32 -37 -86 -81 -84 -161
-102 -182 -41 -8 21 -1 45 42 136 55 117 61 141 37 141 -36 0 -95 -74 -156
-193 -34 -67 -67 -125 -73 -129 -6 -4 -22 -8 -35 -8 -16 0 -21 4 -17 15 4 11
-3 10 -32 -5 -46 -25 -87 -25 -108 -1 -16 18 -17 18 -52 -5 -47 -32 -95 -32
-119 2 l-19 25 -26 -21 c-70 -54 -153 -65 -193 -25 -14 13 -25 29 -25 36 0 6
-16 -3 -36 -21 -72 -63 -149 -77 -161 -30 -7 25 -6 26 -55 -10 -48 -35 -96
-39 -122 -11 -17 19 -18 19 -53 -5 -38 -26 -91 -32 -111 -12 -22 22 -12 68 42
180 58 123 81 153 132 174 29 12 39 12 68 0 19 -8 37 -24 41 -35 3 -12 15 -21
26 -21 17 0 12 -14 -36 -111 -31 -61 -55 -118 -53 -127 7 -31 43 -14 96 45 42
45 73 98 143 243 68 142 94 186 111 192 28 7 48 9 48 4z m-643 -40 c23 -20 28
-32 28 -69 0 -51 -23 -89 -75 -124 -26 -18 -29 -24 -16 -29 8 -3 25 -21 37
-40 31 -51 24 -153 -15 -211 -101 -151 -337 -147 -417 8 -26 51 -25 130 2 185
28 60 47 74 65 49 12 -16 12 -21 -5 -39 -26 -28 -41 -88 -32 -128 8 -35 28
-78 36 -78 3 0 54 100 113 223 120 246 143 277 212 277 27 0 48 -8 67 -24z"/>
<path d="M1093 2098 c-33 -49 -103 -164 -103 -169 0 -2 20 -3 44 -1 l44 4 27
100 c14 55 24 102 22 105 -3 2 -18 -15 -34 -39z"/>
<path d="M2218 2109 c-18 -10 -128 -231 -128 -255 0 -31 49 -14 87 30 50 57
110 192 96 215 -13 20 -33 24 -55 10z"/>
<path d="M1377 2038 c-36 -34 -134 -248 -117 -258 35 -22 91 32 144 138 46 92
50 107 31 126 -22 21 -29 20 -58 -6z"/>
<path d="M2057 1502 c-26 -29 -119 -232 -113 -248 9 -24 37 -15 74 23 41 43
114 189 110 218 -4 27 -49 32 -71 7z"/>
<path d="M1248 1443 c-19 -22 -118 -231 -118 -249 0 -22 36 -16 68 11 37 31
124 197 120 228 -4 29 -48 35 -70 10z"/>
<path d="M967 1629 c-18 -11 -92 -148 -83 -156 2 -3 17 -2 33 1 81 18 132 91
99 141 -18 28 -23 29 -49 14z"/>
<path d="M851 1413 c-6 -10 -38 -74 -72 -142 -40 -83 -57 -127 -50 -134 6 -6
36 -10 68 -11 105 -1 178 61 189 161 6 54 -7 86 -46 114 -40 29 -77 34 -89 12z"/>
</g>
</svg>
