<svg xmlns="http://www.w3.org/2000/svg" width="145.53" height="145.53" viewBox="0 0 145.53 145.53"><defs><style>.cls-1{fill:#747475;}.cls-2{fill:#fff;}</style></defs><title>Logo Adrian Balcan</title><path class="cls-1" d="M304.92,213a1.46,1.46,0,0,0-.37-.89,1.37,1.37,0,0,0-1.16-.41,2.67,2.67,0,0,0-.58.11,4.07,4.07,0,0,0-2.23,2.1l-.09.17-4.37,9.17a3.16,3.16,0,0,0-.34,1.32.79.79,0,0,0,.05.22c.13.29.42.42.86.4a4.55,4.55,0,0,0,2.61-1.49,16,16,0,0,0,2.83-4l2.45-5.13A3.41,3.41,0,0,0,304.92,213Z" transform="translate(-240.9 -137)"/><path class="cls-1" d="M301.85,196a.79.79,0,0,0,.86.39,4.54,4.54,0,0,0,2.67-1.55,16.55,16.55,0,0,0,2.85-4.17l2.38-4.92h0a3.37,3.37,0,0,0,.34-1.54,1.52,1.52,0,0,0-.37-.9,1.42,1.42,0,0,0-1.15-.41,3.64,3.64,0,0,0-.59.12,4,4,0,0,0-2.22,2.09l-.09.18-4.36,9.17a3.09,3.09,0,0,0-.34,1.32A.54.54,0,0,0,301.85,196Z" transform="translate(-240.9 -137)"/><path class="cls-1" d="M287.32,215.27a6.12,6.12,0,0,0-3.87-1.85l-1,0-5.28,10.93a18.86,18.86,0,0,1-1.6,2.7,10.45,10.45,0,0,0,5.28.85,8.36,8.36,0,0,0,4.43-1.63,7.76,7.76,0,0,0,2.71-3.43,10.63,10.63,0,0,0,.74-4c0-.12,0-.23,0-.34A5.13,5.13,0,0,0,287.32,215.27Z" transform="translate(-240.9 -137)"/><path class="cls-1" d="M295.9,178.3a26.9,26.9,0,0,0-1.81,2.41c-.64.94-1.2,1.79-1.66,2.53s-1.06,1.75-1.8,3-1.32,2.19-1.73,2.84l4.16-.3Z" transform="translate(-240.9 -137)"/><path class="cls-1" d="M344.15,210.12a1.52,1.52,0,0,0-.37-.9,1.39,1.39,0,0,0-1.16-.4,2.87,2.87,0,0,0-.59.11,4,4,0,0,0-2.22,2.09l-.09.18-4.37,9.17a3.09,3.09,0,0,0-.34,1.32.54.54,0,0,0,.05.22.81.81,0,0,0,.86.4,4.52,4.52,0,0,0,2.61-1.5,16,16,0,0,0,2.83-4l2.44-5.14A3.27,3.27,0,0,0,344.15,210.12Z" transform="translate(-240.9 -137)"/><path class="cls-1" d="M343.22,193.37a4.52,4.52,0,0,0,2.61-1.5,15.76,15.76,0,0,0,2.83-4l2.45-5.14a3.37,3.37,0,0,0,.34-1.54,1.52,1.52,0,0,0-.37-.9,1.39,1.39,0,0,0-1.16-.4,2.67,2.67,0,0,0-.58.11,4,4,0,0,0-2.23,2.09l-.09.18-4.37,9.17a3.09,3.09,0,0,0-.34,1.32.79.79,0,0,0,.05.22A.82.82,0,0,0,343.22,193.37Z" transform="translate(-240.9 -137)"/><path class="cls-1" d="M254.2,236.19l132.23-10.4V137H240.9V282.53H386.43V228.66l-132,10.39Zm38-16.39a11.33,11.33,0,0,1-2.12,5.82,12.93,12.93,0,0,1-2.25,2.42,11.23,11.23,0,0,1-3,1.75,12.06,12.06,0,0,1-3.66.84,14.21,14.21,0,0,1-4.27-.29,10.23,10.23,0,0,1-5.88-3.62,9.75,9.75,0,0,1-1.59-2.79,11.55,11.55,0,0,1-.63-3v-.12a10.06,10.06,0,0,1,.27-3.11,9.88,9.88,0,0,1,1.25-2.88,9,9,0,0,1,2.21-2.36l1.59,1.74a6.81,6.81,0,0,0-2.33,3.2,7.79,7.79,0,0,0-.43,3.17,6.58,6.58,0,0,0,.12.86,7.76,7.76,0,0,0,1.72,3.69A13.79,13.79,0,0,0,274.4,223l8.43-17.47a9.13,9.13,0,0,1,2.53-3.33,5.64,5.64,0,0,1,3.06-1.32,4.85,4.85,0,0,1,4.4,1.6,4.52,4.52,0,0,1,.95,2.49,5.64,5.64,0,0,1-.06,1.41,7.45,7.45,0,0,1-2.35,4.31,9.37,9.37,0,0,1-2.71,1.78,6.85,6.85,0,0,1,2.12,1.92,7.25,7.25,0,0,1,1.17,2.54,10.16,10.16,0,0,1,.25,1.48A8.09,8.09,0,0,1,292.18,219.8Zm67.89,2.93a3.3,3.3,0,0,1-2.31-.57,2.49,2.49,0,0,1-1-1.88,5.3,5.3,0,0,1,.51-2.48l4.07-8.45a2.72,2.72,0,0,0,.38-1.35.71.71,0,0,0-.19-.46.61.61,0,0,0-.51-.16,3,3,0,0,0-1.4.68,21.16,21.16,0,0,0-4.44,5.09l-4.8,10-3.63.27.82-1.7a8,8,0,0,1-4.44,2.31,3.39,3.39,0,0,1-2.22-.48,2.47,2.47,0,0,1-1.07-1.63c-1.79,1.71-3.39,2.61-4.81,2.72a3.25,3.25,0,0,1-2.31-.58,2.44,2.44,0,0,1-1-1.88,4.17,4.17,0,0,1,0-.5A21.29,21.29,0,0,1,330,223.1a10.35,10.35,0,0,1-5.54,2.29,5.85,5.85,0,0,1-2.77-.41,3.73,3.73,0,0,1-2.38-3.13c-2.48,2.79-4.65,4.27-6.53,4.41a3.32,3.32,0,0,1-2.31-.58,2.44,2.44,0,0,1-1-1.88v-.24c-2.07,2.11-3.92,3.24-5.54,3.36a3.48,3.48,0,0,1-2.21-.48,2.49,2.49,0,0,1-1.08-1.64c-1.79,1.71-3.39,2.61-4.81,2.72a3.27,3.27,0,0,1-2.31-.58,2.42,2.42,0,0,1-1-1.87,5.47,5.47,0,0,1,.51-2.49l4.4-9.09a8.75,8.75,0,0,1,2.63-3.22,6.2,6.2,0,0,1,3.21-1.37,3.93,3.93,0,0,1,3,1,3.11,3.11,0,0,1,1.22,2.07v.24l2-.15-5.2,10.67a3,3,0,0,0-.36,1.32,1.42,1.42,0,0,0,.07.22.78.78,0,0,0,.84.39q2.06-.15,6.3-5.91l.24-.29L320,200.33l3.59-.27-10.54,22a3.09,3.09,0,0,0-.34,1.31.79.79,0,0,0,.05.22.8.8,0,0,0,.86.39q2.05-.15,6.31-5.88l.21-.29h0l3-6.22a8.49,8.49,0,0,1,2.63-3.28,7.22,7.22,0,0,1,3.8-1.36,3.86,3.86,0,0,1,2.49.59,3.06,3.06,0,0,1,1.3,2c0,.12,0,.25,0,.39a5.49,5.49,0,0,1-.58,2.64l-.45.93-2.89.22.45-.94a4.34,4.34,0,0,0,.52-2,1.33,1.33,0,0,0-.28-.74,1,1,0,0,0-.91-.39,2.08,2.08,0,0,0-.63.16,4.64,4.64,0,0,0-2.23,2.24c0,.07-.07.15-.11.23l-3.22,6.69a4.74,4.74,0,0,0-.57,2.29c0,.05,0,.12,0,.18a1.81,1.81,0,0,0,.88,1.36,3.28,3.28,0,0,0,1.87.32,7.55,7.55,0,0,0,4-1.81,21.19,21.19,0,0,0,4-4.2l.23-.29,0,0,3-6.24a8.66,8.66,0,0,1,2.63-3.22,6.09,6.09,0,0,1,3.21-1.37,3.93,3.93,0,0,1,3,1,3.09,3.09,0,0,1,1.22,2.07v.24l2-.15-5.2,10.66a3.1,3.1,0,0,0-.36,1.33,1.29,1.29,0,0,0,.07.21.78.78,0,0,0,.84.4c1.36-.1,3.47-2.07,6.3-5.91l.2-.25,4.92-10.19,3.6-.27-1.17,2.48q2.37-2.91,4.79-3.09a2.61,2.61,0,0,1,1.79.48,2.45,2.45,0,0,1,.95,1.62,1.24,1.24,0,0,1,0,.27,4.69,4.69,0,0,1-.48,2.21l-4.53,9.47a3,3,0,0,0-.35,1.31,1,1,0,0,0,.07.21.78.78,0,0,0,.84.4q2-.15,6.3-5.87l.24-.29a2.62,2.62,0,0,1,.8.45,2.39,2.39,0,0,1,.62.68Q363.75,222.46,360.07,222.73Zm-21.05-50a1.73,1.73,0,0,1,1.29-.71,1.76,1.76,0,0,1,1.41.51,2.13,2.13,0,0,1,.67,1.46,2.08,2.08,0,0,1-.44,1.51,1.87,1.87,0,0,1-1.33.7,1.76,1.76,0,0,1-1.39-.49,2.15,2.15,0,0,1-.64-1.44A2.21,2.21,0,0,1,339,172.74Zm-72.3,17.36a13.55,13.55,0,0,1,1.23-3.74,11.62,11.62,0,0,1,2.15-3,10.5,10.5,0,0,1,2.75-2,9.09,9.09,0,0,1,3-.93l.49-.06a8.26,8.26,0,0,1,2.55.2,7.28,7.28,0,0,1,2.72,1.34,7.44,7.44,0,0,1,2.06,2.5l-2.79,1.31a4.77,4.77,0,0,0-1.54-1.85,4,4,0,0,0-2.11-.73h-.68a6.55,6.55,0,0,0-1.62.38,6.44,6.44,0,0,0-2.28,1.53,9.88,9.88,0,0,0-1.9,2.71,10.27,10.27,0,0,0-1,3.71c0,.42,0,.82,0,1.2a6.29,6.29,0,0,0,.49,2,4.63,4.63,0,0,0,2,2.2,5.78,5.78,0,0,0,3.38.63h.06a6.93,6.93,0,0,0,3-1.08,14.21,14.21,0,0,0,2.89-2.46,40.68,40.68,0,0,0,2.75-3.39q1.39-1.89,2.71-3.93c.87-1.36,1.75-2.71,2.62-4s1.76-2.58,2.64-3.74a29.09,29.09,0,0,1,2.6-3,8.31,8.31,0,0,1,2.65-1.84,4.7,4.7,0,0,1,1.45-.37,3.82,3.82,0,0,1,1.21.1L294.66,195a7.25,7.25,0,0,0-.21,1.11.73.73,0,0,0,.08.52.43.43,0,0,0,.38.12c.33,0,1-.57,2-1.63a43.39,43.39,0,0,0,3.28-4l.11-.14,3.08-6.36a8.56,8.56,0,0,1,2.63-3.22,6.09,6.09,0,0,1,3.2-1.37,3.74,3.74,0,0,1,2,.36,3.94,3.94,0,0,1,1.46,1.21l4.61-9.49,3.6-.27-10.61,22a3.16,3.16,0,0,0-.34,1.32,1.42,1.42,0,0,0,.07.22.78.78,0,0,0,.84.39q2-.15,6.3-5.91l.23-.29h0q2-2.82,5.45-8.5l-.33-.38a3.41,3.41,0,0,1-1-2.14c0-.17,0-.34,0-.51a4.82,4.82,0,0,1,1.46-3l2,1.9a1.7,1.7,0,0,0-.52,1.18,1.43,1.43,0,0,0,.48.92l2.16,2.26a7.31,7.31,0,0,1,.83,1,4,4,0,0,1,.49,1,2.55,2.55,0,0,1,.11.55,2.94,2.94,0,0,1,0,.72,5.83,5.83,0,0,1-.52,1.52l-3.13,6.56a3.12,3.12,0,0,0-.34,1.32.54.54,0,0,0,.05.22c.13.28.42.41.86.39q2-.15,6.3-5.89l.22-.28h0l4.91-10.2,3.46-.25-6.6,14a3.2,3.2,0,0,0-.33,1.32.5.5,0,0,0,.05.21c.13.29.41.42.85.4q2-.15,6.22-5.88l.21-.29.1,0,3-6.27a8.75,8.75,0,0,1,2.63-3.22,6.12,6.12,0,0,1,3.21-1.37,3.93,3.93,0,0,1,3,1,3.09,3.09,0,0,1,1.22,2.07v.24l2-.15-5.2,10.66a3.1,3.1,0,0,0-.36,1.33,1,1,0,0,0,.07.21.78.78,0,0,0,.84.4q2.06-.15,6.31-5.91l.19-.25,4.92-10.19,3.6-.27-1.17,2.48q2.37-2.91,4.79-3.09a2.6,2.6,0,0,1,1.8.49,2.39,2.39,0,0,1,.94,1.61,2.51,2.51,0,0,1,0,.27,4.94,4.94,0,0,1-.48,2.21l-4.54,9.47a3,3,0,0,0-.35,1.31,1,1,0,0,0,.07.21.78.78,0,0,0,.84.4q2-.15,6.31-5.87l.23-.29a2.78,2.78,0,0,1,.81.45,2.34,2.34,0,0,1,.61.68q-5.19,7-8.87,7.32a3.32,3.32,0,0,1-2.31-.57,2.49,2.49,0,0,1-1-1.88,5.43,5.43,0,0,1,.51-2.48l4.08-8.45a2.8,2.8,0,0,0,.37-1.35.71.71,0,0,0-.18-.46.63.63,0,0,0-.51-.16,3,3,0,0,0-1.41.68,21.16,21.16,0,0,0-4.44,5.09l-4.79,10-3.64.27.83-1.7a8,8,0,0,1-4.45,2.31,3.36,3.36,0,0,1-2.21-.48,2.45,2.45,0,0,1-1.08-1.63c-1.79,1.71-3.39,2.61-4.81,2.72a3.27,3.27,0,0,1-2.31-.58,2.44,2.44,0,0,1-1-1.88c0-.12,0-.25,0-.37-2.08,2.2-3.93,3.37-5.56,3.49a3.23,3.23,0,0,1-2.3-.58,2.48,2.48,0,0,1-1-2.14Q327,196.8,324.53,197a3.32,3.32,0,0,1-2.31-.57,2.49,2.49,0,0,1-1-1.88,5.2,5.2,0,0,1,.52-2.48l3.28-6.89a1.63,1.63,0,0,0,.21-.88,2,2,0,0,0-.55-1.15l-.54-.53q-3.57,5.72-5.36,8.14h0q-5.19,7.07-8.87,7.34a3.38,3.38,0,0,1-2.21-.48A2.49,2.49,0,0,1,306.6,196c-1.78,1.7-3.39,2.61-4.8,2.72a3.3,3.3,0,0,1-2.31-.58,2.43,2.43,0,0,1-1-1.81l-.64.67c-.4.38-.83.76-1.29,1.13a5.68,5.68,0,0,1-1.34.84,4,4,0,0,1-1.3.33,2.21,2.21,0,0,1-1.91-.6,2.67,2.67,0,0,1-.71-1.72v-.08a8.56,8.56,0,0,1,.34-2.56l1-3.77-4.85.36q-1.33,2.09-2.55,3.63a26.46,26.46,0,0,1-2.69,2.95,12.18,12.18,0,0,1-3.14,2.2,9.76,9.76,0,0,1-6.89.59,8.28,8.28,0,0,1-2.8-1.4,7.84,7.84,0,0,1-2-2.3,8.48,8.48,0,0,1-1.05-3c0-.27-.08-.53-.11-.8A11.25,11.25,0,0,1,266.72,190.1Z" transform="translate(-240.9 -137)"/><path class="cls-1" d="M290.25,207.2a4,4,0,0,0,.37-1.89,2.36,2.36,0,0,0-.27-1,1.5,1.5,0,0,0-1.4-.95h-.15a3.19,3.19,0,0,0-2.29,1.77,6.27,6.27,0,0,0-.48.85l-2.51,5.2a11.13,11.13,0,0,0,4.33-1.14A5.86,5.86,0,0,0,290.25,207.2Z" transform="translate(-240.9 -137)"/><polygon class="cls-2" points="13.29 99.19 145.53 88.79 145.53 91.66 13.52 102.05 13.29 99.19"/><path class="cls-2" d="M339,172.74a1.73,1.73,0,0,1,1.29-.71,1.76,1.76,0,0,1,1.41.51,2.13,2.13,0,0,1,.67,1.46,2.08,2.08,0,0,1-.44,1.51,1.82,1.82,0,0,1-1.33.69,1.72,1.72,0,0,1-1.39-.48,2.15,2.15,0,0,1-.64-1.44A2.21,2.21,0,0,1,339,172.74Z" transform="translate(-240.9 -137)"/><path class="cls-2" d="M360.07,222.73a3.3,3.3,0,0,1-2.31-.57,2.49,2.49,0,0,1-1-1.88,5.3,5.3,0,0,1,.51-2.48l4.07-8.45a2.72,2.72,0,0,0,.38-1.35.71.71,0,0,0-.19-.46.61.61,0,0,0-.51-.16,3,3,0,0,0-1.4.68,21.16,21.16,0,0,0-4.44,5.09l-4.8,10-3.63.27.82-1.7a8,8,0,0,1-4.44,2.31,3.39,3.39,0,0,1-2.22-.48,2.47,2.47,0,0,1-1.07-1.63c-1.79,1.71-3.39,2.61-4.81,2.72a3.25,3.25,0,0,1-2.31-.58,2.44,2.44,0,0,1-1-1.88,4.17,4.17,0,0,1,0-.5A21.29,21.29,0,0,1,330,223.1a10.35,10.35,0,0,1-5.54,2.29,5.85,5.85,0,0,1-2.77-.41,3.73,3.73,0,0,1-2.38-3.13c-2.48,2.79-4.65,4.27-6.53,4.41a3.32,3.32,0,0,1-2.31-.58,2.44,2.44,0,0,1-1-1.88v-.24c-2.07,2.11-3.92,3.24-5.54,3.36a3.48,3.48,0,0,1-2.21-.48,2.49,2.49,0,0,1-1.08-1.64c-1.79,1.71-3.39,2.61-4.81,2.72a3.27,3.27,0,0,1-2.31-.58,2.42,2.42,0,0,1-1-1.87,5.47,5.47,0,0,1,.51-2.49l4.4-9.09a8.75,8.75,0,0,1,2.63-3.22,6.2,6.2,0,0,1,3.21-1.37,3.93,3.93,0,0,1,3,1,3.09,3.09,0,0,1,1.22,2.07v.24l2-.15-5.2,10.67a3,3,0,0,0-.36,1.32,1.42,1.42,0,0,0,.07.22.79.79,0,0,0,.84.39q2.06-.15,6.3-5.91l.24-.29L320,200.33l3.59-.27-10.54,22a3.09,3.09,0,0,0-.34,1.31.79.79,0,0,0,.05.22.81.81,0,0,0,.86.39q2.05-.15,6.31-5.88l.21-.29h0l3-6.22a8.49,8.49,0,0,1,2.63-3.28,7.22,7.22,0,0,1,3.8-1.36,3.86,3.86,0,0,1,2.49.59,3.06,3.06,0,0,1,1.3,2c0,.12,0,.25,0,.39a5.49,5.49,0,0,1-.58,2.64l-.45.93-2.89.22.45-.94a4.34,4.34,0,0,0,.52-2,1.33,1.33,0,0,0-.28-.74,1,1,0,0,0-.91-.39,2.08,2.08,0,0,0-.63.16,4.64,4.64,0,0,0-2.23,2.24c0,.07-.07.15-.11.23l-3.22,6.69a4.74,4.74,0,0,0-.57,2.29c0,.05,0,.12,0,.18a1.81,1.81,0,0,0,.88,1.36,3.28,3.28,0,0,0,1.87.32,7.55,7.55,0,0,0,4-1.81,21.19,21.19,0,0,0,4-4.2l.23-.29,0,0,3-6.24a8.66,8.66,0,0,1,2.63-3.22,6.09,6.09,0,0,1,3.21-1.37,3.93,3.93,0,0,1,3,1,3.09,3.09,0,0,1,1.22,2.07v.24l2-.15-5.2,10.66a3.1,3.1,0,0,0-.36,1.33,1.29,1.29,0,0,0,.07.21.78.78,0,0,0,.84.4c1.36-.1,3.47-2.07,6.3-5.91l.2-.25,4.92-10.19,3.6-.27-1.17,2.48q2.37-2.91,4.79-3.09a2.61,2.61,0,0,1,1.79.48,2.45,2.45,0,0,1,.95,1.62,1.24,1.24,0,0,1,0,.27,4.69,4.69,0,0,1-.48,2.21l-4.53,9.46a3.06,3.06,0,0,0-.35,1.32,1,1,0,0,0,.07.21.78.78,0,0,0,.84.4q2-.15,6.3-5.87l.24-.29a2.62,2.62,0,0,1,.8.45,2.39,2.39,0,0,1,.62.68Q363.75,222.46,360.07,222.73ZM304.92,213a1.46,1.46,0,0,0-.37-.89,1.37,1.37,0,0,0-1.16-.41,2.67,2.67,0,0,0-.58.11,4.08,4.08,0,0,0-2.23,2.09l-.09.18-4.37,9.17a3.16,3.16,0,0,0-.34,1.32.79.79,0,0,0,.05.22c.13.29.42.42.86.4a4.55,4.55,0,0,0,2.61-1.49,16,16,0,0,0,2.83-4l2.45-5.13A3.41,3.41,0,0,0,304.92,213Zm39.23-2.92a1.52,1.52,0,0,0-.37-.9,1.43,1.43,0,0,0-1.16-.41,3.86,3.86,0,0,0-.59.12,4,4,0,0,0-2.22,2.09l-.09.18-4.37,9.17a3.09,3.09,0,0,0-.34,1.32.54.54,0,0,0,.05.22.79.79,0,0,0,.86.39,4.44,4.44,0,0,0,2.61-1.49,16,16,0,0,0,2.83-4l2.44-5.14A3.27,3.27,0,0,0,344.15,210.12Z" transform="translate(-240.9 -137)"/><path class="cls-2" d="M266.72,190.1a13.55,13.55,0,0,1,1.23-3.74,11.29,11.29,0,0,1,2.15-3,10.5,10.5,0,0,1,2.75-2,9.09,9.09,0,0,1,3-.93l.49-.06a8.26,8.26,0,0,1,2.55.2,7.28,7.28,0,0,1,2.72,1.34,7.44,7.44,0,0,1,2.06,2.5l-2.79,1.31a4.77,4.77,0,0,0-1.54-1.85,4,4,0,0,0-2.11-.73h-.68a6.55,6.55,0,0,0-1.62.38,6.44,6.44,0,0,0-2.28,1.53,9.73,9.73,0,0,0-1.9,2.71,10.27,10.27,0,0,0-1,3.71c0,.42,0,.82,0,1.2a6.29,6.29,0,0,0,.49,2,4.63,4.63,0,0,0,2,2.2,5.78,5.78,0,0,0,3.38.63h.06a6.93,6.93,0,0,0,3-1.08,14.21,14.21,0,0,0,2.89-2.46,40.68,40.68,0,0,0,2.75-3.39q1.39-1.89,2.71-3.93c.87-1.36,1.75-2.71,2.62-4s1.76-2.58,2.64-3.74a29.09,29.09,0,0,1,2.6-3,8.31,8.31,0,0,1,2.65-1.84,4.7,4.7,0,0,1,1.45-.37,3.82,3.82,0,0,1,1.21.1L294.66,195a7.25,7.25,0,0,0-.21,1.11.73.73,0,0,0,.08.52.43.43,0,0,0,.38.12c.33,0,1-.57,2-1.63a43.39,43.39,0,0,0,3.28-4l.11-.14,3.08-6.36a8.67,8.67,0,0,1,2.63-3.23,6.15,6.15,0,0,1,3.2-1.36,3.74,3.74,0,0,1,2,.36,3.94,3.94,0,0,1,1.46,1.21l4.61-9.49,3.6-.27-10.61,22a3.16,3.16,0,0,0-.34,1.32,1.42,1.42,0,0,0,.07.22.78.78,0,0,0,.84.39q2-.15,6.3-5.91l.23-.29h0q2-2.82,5.45-8.5l-.33-.38a3.43,3.43,0,0,1-1-2.14c0-.17,0-.34,0-.51a4.82,4.82,0,0,1,1.46-3l2,1.9a1.7,1.7,0,0,0-.52,1.18,1.43,1.43,0,0,0,.48.92l2.16,2.26a7.31,7.31,0,0,1,.83,1,3.83,3.83,0,0,1,.49,1,2.55,2.55,0,0,1,.11.55,2.94,2.94,0,0,1,0,.72,5.83,5.83,0,0,1-.52,1.52l-3.13,6.56a3.12,3.12,0,0,0-.34,1.32.54.54,0,0,0,.05.22c.13.28.42.41.86.39q2-.15,6.3-5.89l.22-.28h0l4.91-10.2,3.46-.25-6.6,14a3.2,3.2,0,0,0-.33,1.32.5.5,0,0,0,.05.21c.13.29.41.42.85.4q2-.15,6.22-5.88l.21-.29.1,0,3-6.27a8.75,8.75,0,0,1,2.63-3.22,6.12,6.12,0,0,1,3.21-1.37,3.93,3.93,0,0,1,3,1,3.09,3.09,0,0,1,1.22,2.07v.24l2-.15-5.2,10.66a3.1,3.1,0,0,0-.36,1.33,1.29,1.29,0,0,0,.07.21.78.78,0,0,0,.84.4q2.06-.15,6.31-5.91l.19-.25,4.92-10.19,3.6-.27-1.17,2.48q2.37-2.91,4.79-3.09a2.64,2.64,0,0,1,1.8.48,2.44,2.44,0,0,1,.94,1.62,2.51,2.51,0,0,1,0,.27,4.94,4.94,0,0,1-.48,2.21l-4.54,9.46a3.06,3.06,0,0,0-.35,1.32,1,1,0,0,0,.07.21.78.78,0,0,0,.84.4q2-.15,6.31-5.87l.23-.29a2.78,2.78,0,0,1,.81.45,2.34,2.34,0,0,1,.61.68q-5.19,7-8.87,7.32a3.32,3.32,0,0,1-2.31-.57,2.49,2.49,0,0,1-1-1.88,5.43,5.43,0,0,1,.51-2.48l4.07-8.45a2.72,2.72,0,0,0,.38-1.35.71.71,0,0,0-.18-.46.63.63,0,0,0-.51-.16,3,3,0,0,0-1.41.68,21.16,21.16,0,0,0-4.44,5.09l-4.79,10-3.64.27.83-1.7a8,8,0,0,1-4.45,2.31,3.36,3.36,0,0,1-2.21-.48,2.45,2.45,0,0,1-1.08-1.63c-1.79,1.71-3.39,2.61-4.81,2.72a3.27,3.27,0,0,1-2.31-.58,2.44,2.44,0,0,1-1-1.88c0-.12,0-.25,0-.37-2.08,2.2-3.93,3.37-5.56,3.49a3.23,3.23,0,0,1-2.3-.58,2.48,2.48,0,0,1-1-2.14Q327,196.8,324.53,197a3.32,3.32,0,0,1-2.31-.57,2.49,2.49,0,0,1-1-1.88,5.2,5.2,0,0,1,.52-2.48l3.28-6.89a1.63,1.63,0,0,0,.21-.88,2,2,0,0,0-.55-1.15l-.54-.53q-3.57,5.72-5.36,8.14h0q-5.19,7.07-8.87,7.34a3.38,3.38,0,0,1-2.21-.48A2.49,2.49,0,0,1,306.6,196c-1.78,1.7-3.39,2.61-4.8,2.72a3.3,3.3,0,0,1-2.31-.58,2.43,2.43,0,0,1-1-1.81l-.64.67c-.4.38-.83.76-1.29,1.13a5.68,5.68,0,0,1-1.34.84,4,4,0,0,1-1.3.33,2.24,2.24,0,0,1-1.91-.6,2.67,2.67,0,0,1-.71-1.72v-.08a8.56,8.56,0,0,1,.34-2.56l1-3.77-4.85.36q-1.33,2.09-2.55,3.63a26.46,26.46,0,0,1-2.69,2.95,12.18,12.18,0,0,1-3.14,2.2,9.76,9.76,0,0,1-6.89.59,8.28,8.28,0,0,1-2.8-1.4,7.84,7.84,0,0,1-2-2.3,8.48,8.48,0,0,1-1.05-3c0-.27-.08-.53-.11-.8A11.25,11.25,0,0,1,266.72,190.1ZM301.85,196a.79.79,0,0,0,.86.39,4.54,4.54,0,0,0,2.67-1.55,16.55,16.55,0,0,0,2.85-4.17l2.38-4.92h0a3.37,3.37,0,0,0,.34-1.54,1.52,1.52,0,0,0-.37-.9,1.42,1.42,0,0,0-1.15-.41,3.64,3.64,0,0,0-.59.12,4,4,0,0,0-2.22,2.09l-.09.18-4.36,9.17a3.09,3.09,0,0,0-.34,1.32A.54.54,0,0,0,301.85,196Zm-6-17.69a26.9,26.9,0,0,0-1.81,2.41c-.64.94-1.2,1.78-1.66,2.53s-1.06,1.75-1.8,3-1.32,2.19-1.73,2.84l4.16-.31Zm47.32,15.06a4.44,4.44,0,0,0,2.61-1.49,15.76,15.76,0,0,0,2.83-4l2.45-5.14a3.37,3.37,0,0,0,.34-1.54,1.52,1.52,0,0,0-.37-.9,1.39,1.39,0,0,0-1.16-.4,2.67,2.67,0,0,0-.58.11,4,4,0,0,0-2.23,2.09l-.09.18-4.37,9.17a3.09,3.09,0,0,0-.34,1.32.79.79,0,0,0,.05.22A.8.8,0,0,0,343.22,193.36Z" transform="translate(-240.9 -137)"/><path class="cls-2" d="M292.18,219.8a11.08,11.08,0,0,1-.63,3,11.33,11.33,0,0,1-1.49,2.83,12.93,12.93,0,0,1-2.25,2.42,11.23,11.23,0,0,1-3,1.75,12.37,12.37,0,0,1-3.66.84,14.21,14.21,0,0,1-4.27-.29,10.23,10.23,0,0,1-5.88-3.62,9.75,9.75,0,0,1-1.59-2.79,11.55,11.55,0,0,1-.63-3v-.12a10.06,10.06,0,0,1,.27-3.11,9.88,9.88,0,0,1,1.25-2.88,9,9,0,0,1,2.21-2.36l1.59,1.74a6.81,6.81,0,0,0-2.33,3.2,7.79,7.79,0,0,0-.43,3.17,6.58,6.58,0,0,0,.12.86,7.81,7.81,0,0,0,1.72,3.69A13.79,13.79,0,0,0,274.4,223l8.43-17.47a9.13,9.13,0,0,1,2.53-3.33,5.64,5.64,0,0,1,3.06-1.32,4.85,4.85,0,0,1,4.4,1.6,4.52,4.52,0,0,1,.95,2.49,5.64,5.64,0,0,1-.06,1.41,7.45,7.45,0,0,1-2.35,4.31,9.37,9.37,0,0,1-2.71,1.78,6.85,6.85,0,0,1,2.12,1.92,7.25,7.25,0,0,1,1.17,2.54,10.16,10.16,0,0,1,.25,1.48A8.09,8.09,0,0,1,292.18,219.8Zm-4.86-4.53a6.12,6.12,0,0,0-3.87-1.85l-1,0-5.28,10.93a18.86,18.86,0,0,1-1.6,2.7,10.45,10.45,0,0,0,5.28.85,8.36,8.36,0,0,0,4.43-1.63,7.76,7.76,0,0,0,2.71-3.43,10.63,10.63,0,0,0,.74-4c0-.12,0-.23,0-.34A5.13,5.13,0,0,0,287.32,215.27Zm2.93-8.07a4,4,0,0,0,.37-1.9,2.35,2.35,0,0,0-.27-1,1.5,1.5,0,0,0-1.4-.95h-.15a3.19,3.19,0,0,0-2.29,1.77,6.27,6.27,0,0,0-.48.85l-2.51,5.2a11.13,11.13,0,0,0,4.33-1.14A5.86,5.86,0,0,0,290.25,207.2Z" transform="translate(-240.9 -137)"/></svg>
